<mxfile host="app.diagrams.net" modified="2021-11-01T02:28:17.920Z" agent="5.0 (Macintosh; Intel Mac OS X 10_15_7) AppleWebKit/537.36 (KHTML, like Gecko) Chrome/95.0.4638.54 Safari/537.36" etag="5ALxwABVET3nO7IR5GEb" version="14.7.6" type="github">
  <diagram id="C5RBs43oDa-KdzZeNtuy" name="Page-1">
    <mxGraphModel dx="1186" dy="510" grid="0" gridSize="10" guides="1" tooltips="1" connect="1" arrows="1" fold="1" page="1" pageScale="1" pageWidth="827" pageHeight="1169" math="0" shadow="0">
      <root>
        <mxCell id="WIyWlLk6GJQsqaUBKTNV-0" />
        <mxCell id="WIyWlLk6GJQsqaUBKTNV-1" parent="WIyWlLk6GJQsqaUBKTNV-0" />
        <mxCell id="Y4lpdi-o4f_pe6dymFQL-0" value="user&lt;br&gt;" style="rounded=0;whiteSpace=wrap;html=1;" vertex="1" parent="WIyWlLk6GJQsqaUBKTNV-1">
          <mxGeometry x="320" y="245" width="80" height="30" as="geometry" />
        </mxCell>
        <mxCell id="Y4lpdi-o4f_pe6dymFQL-1" value="&lt;font face=&quot;Times New Roman&quot;&gt;nickname&lt;/font&gt;" style="ellipse;whiteSpace=wrap;html=1;" vertex="1" parent="WIyWlLk6GJQsqaUBKTNV-1">
          <mxGeometry x="240" y="190" width="60" height="40" as="geometry" />
        </mxCell>
        <mxCell id="Y4lpdi-o4f_pe6dymFQL-2" value="&lt;font face=&quot;Times New Roman&quot;&gt;user_id&lt;/font&gt;" style="ellipse;whiteSpace=wrap;html=1;" vertex="1" parent="WIyWlLk6GJQsqaUBKTNV-1">
          <mxGeometry x="220" y="240" width="60" height="40" as="geometry" />
        </mxCell>
        <mxCell id="Y4lpdi-o4f_pe6dymFQL-3" value="&lt;font face=&quot;Times New Roman&quot;&gt;user_name&lt;/font&gt;" style="ellipse;whiteSpace=wrap;html=1;" vertex="1" parent="WIyWlLk6GJQsqaUBKTNV-1">
          <mxGeometry x="300" y="160" width="60" height="40" as="geometry" />
        </mxCell>
        <mxCell id="Y4lpdi-o4f_pe6dymFQL-5" value="&lt;font face=&quot;Times New Roman&quot;&gt;password&lt;/font&gt;" style="ellipse;whiteSpace=wrap;html=1;" vertex="1" parent="WIyWlLk6GJQsqaUBKTNV-1">
          <mxGeometry x="370" y="160" width="60" height="40" as="geometry" />
        </mxCell>
        <mxCell id="Y4lpdi-o4f_pe6dymFQL-6" value="&lt;font face=&quot;Times New Roman&quot;&gt;email&lt;/font&gt;" style="ellipse;whiteSpace=wrap;html=1;" vertex="1" parent="WIyWlLk6GJQsqaUBKTNV-1">
          <mxGeometry x="440" y="190" width="60" height="40" as="geometry" />
        </mxCell>
        <mxCell id="Y4lpdi-o4f_pe6dymFQL-7" value="&lt;font face=&quot;Times New Roman&quot;&gt;sex&lt;/font&gt;" style="ellipse;whiteSpace=wrap;html=1;" vertex="1" parent="WIyWlLk6GJQsqaUBKTNV-1">
          <mxGeometry x="440" y="240" width="60" height="40" as="geometry" />
        </mxCell>
        <mxCell id="Y4lpdi-o4f_pe6dymFQL-9" value="" style="endArrow=none;html=1;exitX=1;exitY=0.5;exitDx=0;exitDy=0;entryX=0;entryY=0.5;entryDx=0;entryDy=0;" edge="1" parent="WIyWlLk6GJQsqaUBKTNV-1" source="Y4lpdi-o4f_pe6dymFQL-0" target="Y4lpdi-o4f_pe6dymFQL-7">
          <mxGeometry width="50" height="50" relative="1" as="geometry">
            <mxPoint x="430" y="330" as="sourcePoint" />
            <mxPoint x="440" y="270" as="targetPoint" />
          </mxGeometry>
        </mxCell>
        <mxCell id="Y4lpdi-o4f_pe6dymFQL-11" value="" style="endArrow=none;html=1;exitX=0;exitY=0.5;exitDx=0;exitDy=0;entryX=1;entryY=0.5;entryDx=0;entryDy=0;" edge="1" parent="WIyWlLk6GJQsqaUBKTNV-1" source="Y4lpdi-o4f_pe6dymFQL-0" target="Y4lpdi-o4f_pe6dymFQL-2">
          <mxGeometry width="50" height="50" relative="1" as="geometry">
            <mxPoint x="410" y="270" as="sourcePoint" />
            <mxPoint x="450" y="270" as="targetPoint" />
          </mxGeometry>
        </mxCell>
        <mxCell id="Y4lpdi-o4f_pe6dymFQL-12" value="" style="endArrow=none;html=1;exitX=0.25;exitY=0;exitDx=0;exitDy=0;entryX=1;entryY=1;entryDx=0;entryDy=0;" edge="1" parent="WIyWlLk6GJQsqaUBKTNV-1" source="Y4lpdi-o4f_pe6dymFQL-0" target="Y4lpdi-o4f_pe6dymFQL-1">
          <mxGeometry width="50" height="50" relative="1" as="geometry">
            <mxPoint x="330" y="270" as="sourcePoint" />
            <mxPoint x="290" y="270" as="targetPoint" />
          </mxGeometry>
        </mxCell>
        <mxCell id="Y4lpdi-o4f_pe6dymFQL-13" value="" style="endArrow=none;html=1;exitX=0.5;exitY=0;exitDx=0;exitDy=0;entryX=0.5;entryY=1;entryDx=0;entryDy=0;" edge="1" parent="WIyWlLk6GJQsqaUBKTNV-1" source="Y4lpdi-o4f_pe6dymFQL-0" target="Y4lpdi-o4f_pe6dymFQL-3">
          <mxGeometry width="50" height="50" relative="1" as="geometry">
            <mxPoint x="350" y="255" as="sourcePoint" />
            <mxPoint x="301.21320343559637" y="234.14213562373095" as="targetPoint" />
          </mxGeometry>
        </mxCell>
        <mxCell id="Y4lpdi-o4f_pe6dymFQL-14" value="" style="endArrow=none;html=1;entryX=0.5;entryY=1;entryDx=0;entryDy=0;exitX=0.75;exitY=0;exitDx=0;exitDy=0;" edge="1" parent="WIyWlLk6GJQsqaUBKTNV-1" source="Y4lpdi-o4f_pe6dymFQL-0" target="Y4lpdi-o4f_pe6dymFQL-5">
          <mxGeometry width="50" height="50" relative="1" as="geometry">
            <mxPoint x="380" y="240" as="sourcePoint" />
            <mxPoint x="350" y="210" as="targetPoint" />
          </mxGeometry>
        </mxCell>
        <mxCell id="Y4lpdi-o4f_pe6dymFQL-15" value="" style="endArrow=none;html=1;entryX=0;entryY=1;entryDx=0;entryDy=0;exitX=1;exitY=0;exitDx=0;exitDy=0;" edge="1" parent="WIyWlLk6GJQsqaUBKTNV-1" source="Y4lpdi-o4f_pe6dymFQL-0" target="Y4lpdi-o4f_pe6dymFQL-6">
          <mxGeometry width="50" height="50" relative="1" as="geometry">
            <mxPoint x="390" y="255" as="sourcePoint" />
            <mxPoint x="423.5" y="210" as="targetPoint" />
          </mxGeometry>
        </mxCell>
      </root>
    </mxGraphModel>
  </diagram>
</mxfile>
